<?xml version="1.0" encoding="UTF-8"?><svg id="Layer_2" xmlns="http://www.w3.org/2000/svg" xmlns:xlink="http://www.w3.org/1999/xlink" viewBox="0 0 266.53 266.53"><defs><style>.cls-1,.cls-2,.cls-3{fill:#fff;}.cls-1,.cls-3,.cls-4{stroke:#000;}.cls-1,.cls-4{stroke-miterlimit:10;}.cls-5{font-family:ApercuPro-Bold, 'Apercu Pro';font-size:130.92px;font-weight:700;}.cls-5,.cls-6{fill:#000;}.cls-7{clip-path:url(#clippath);}.cls-6{stroke-width:0px;}.cls-4{fill:none;}</style><clipPath id="clippath"><circle class="cls-1" cx="133.26" cy="133.26" r="132.76"/></clipPath></defs><g id="Layer_1-2"><circle class="cls-2" cx="133.26" cy="133.26" r="132.76"/><g class="cls-7"><rect class="cls-3" x="-21.47" y="-13.47" width="60.69" height="60.69"/><rect class="cls-3" x="39.22" y="-13.47" width="60.69" height="60.69"/><rect class="cls-3" x="99.92" y="-13.47" width="60.69" height="60.69"/><rect class="cls-3" x="160.61" y="-13.47" width="60.69" height="60.69"/><rect class="cls-3" x="221.3" y="-13.47" width="60.69" height="60.69"/><rect class="cls-3" x="-21.47" y="47.22" width="60.69" height="60.69"/><polyline class="cls-3" points="99.92 107.92 39.22 107.92 39.22 47.22 99.92 47.22"/><polyline class="cls-3" points="99.92 47.22 160.61 47.22 160.61 107.92"/><rect class="cls-3" x="160.61" y="47.22" width="60.69" height="60.69"/><rect class="cls-3" x="221.3" y="47.22" width="60.69" height="60.69"/><rect class="cls-3" x="-21.47" y="107.92" width="60.69" height="60.69"/><rect class="cls-3" x="39.22" y="107.92" width="60.69" height="60.69"/><rect class="cls-3" x="99.92" y="107.92" width="60.69" height="60.69"/><rect class="cls-3" x="221.3" y="107.92" width="60.69" height="60.69"/><rect class="cls-3" x="-21.47" y="168.61" width="60.69" height="60.69"/><rect class="cls-3" x="39.22" y="168.61" width="60.69" height="60.69"/><rect class="cls-3" x="99.92" y="168.61" width="60.69" height="60.69"/><polyline class="cls-3" points="221.3 168.61 221.3 229.3 160.61 229.3 160.61 168.61"/><rect class="cls-3" x="221.3" y="168.61" width="60.69" height="60.69"/><rect class="cls-3" x="-21.47" y="229.3" width="60.69" height="60.69"/><rect class="cls-3" x="39.22" y="229.3" width="60.69" height="60.69"/><rect class="cls-3" x="99.92" y="229.3" width="60.69" height="60.69"/><rect class="cls-3" x="160.61" y="229.3" width="60.69" height="60.69"/><rect class="cls-3" x="221.3" y="229.3" width="60.69" height="60.69"/></g><circle class="cls-4" cx="133.26" cy="133.26" r="132.76"/><path class="cls-6" d="M39.44,47.68h14.91v9.74c2.32-3.53,4.87-6.19,7.64-8,2.77-1.8,6.03-2.71,9.8-2.71s7.41,1.04,10.46,3.13c3.05,2.09,5.21,5.21,6.49,9.38,2.16-3.93,4.87-6.99,8.12-9.2,3.25-2.2,6.71-3.31,10.4-3.31,5.61,0,10.02,1.64,13.23,4.93,3.21,3.29,4.81,7.86,4.81,13.71v42.93h-14.91v-40.41c0-5.61-2.49-8.42-7.46-8.42-3.85,0-7,2.17-9.44,6.49-2.45,4.33-3.67,10.58-3.67,18.76v23.57h-14.91v-40.41c0-5.61-2.49-8.42-7.46-8.42-3.85,0-7,2.27-9.44,6.79-2.45,4.53-3.67,11.12-3.67,19.78v22.25h-14.91v-60.61Z"/><text class="cls-5" transform="translate(156.13 201.82)"><tspan x="0" y="0">g</tspan></text><path class="cls-6" d="M99.92,218.3q0-49.69-49.69-49.69,49.69,0,49.69-49.69,0,49.69,49.69,49.69-49.69,0-49.69,49.69Z"/></g></svg>